<?xml version="1.0" standalone="no"?>
<!DOCTYPE svg PUBLIC "-//W3C//DTD SVG 20010904//EN"
 "http://www.w3.org/TR/2001/REC-SVG-20010904/DTD/svg10.dtd">
<svg version="1.0" xmlns="http://www.w3.org/2000/svg"
 width="512.000000pt" height="512.000000pt" viewBox="0 0 512.000000 512.000000"
 preserveAspectRatio="xMidYMid meet">

<g transform="translate(0.000000,512.000000) scale(0.100000,-0.100000)"
fill="#000000" stroke="none">
<path d="M1176 5055 c-60 -32 -67 -64 -41 -200 21 -107 21 -282 0 -370 -21
-92 -71 -191 -145 -289 -69 -92 -78 -134 -37 -182 22 -25 32 -28 128 -35 168
-13 236 -47 283 -141 46 -93 63 -87 -241 -90 -267 -3 -268 -3 -325 -30 -80
-37 -152 -107 -191 -187 l-32 -66 0 -350 0 -350 27 -57 c37 -80 70 -120 134
-164 l54 -37 0 -184 0 -183 -110 0 c-177 0 -261 -44 -322 -168 l-33 -67 -3
-577 -3 -578 -120 0 c-84 0 -128 -4 -148 -14 -29 -16 -51 -54 -51 -89 1 -12
51 -143 113 -292 106 -255 114 -271 147 -288 33 -16 94 -17 963 -15 l929 3 29
33 c40 44 40 93 0 133 l-29 29 -889 0 -889 0 -61 148 -61 147 1154 3 c635 1
1673 1 2308 0 l1154 -3 -61 -147 -61 -148 -889 0 -889 0 -29 -29 c-40 -40 -40
-89 0 -133 l29 -33 929 -3 c869 -2 930 -1 963 15 33 17 41 33 147 288 62 149
112 280 113 293 0 34 -25 77 -55 90 -15 7 -74 12 -145 12 l-119 0 -3 578 -3
577 -33 67 c-60 123 -146 168 -322 168 l-110 0 0 183 0 184 54 37 c64 44 97
84 134 164 l27 57 0 350 0 350 -32 66 c-39 80 -111 150 -191 187 -57 27 -58
27 -324 30 -305 3 -288 -3 -242 90 47 94 115 128 283 141 96 7 106 10 128 35
41 48 32 90 -37 182 -74 98 -124 197 -145 289 -21 88 -21 260 0 375 21 119 20
143 -10 173 -37 36 -70 42 -114 19 -303 -160 -357 -178 -526 -176 -90 1 -126
7 -200 29 -136 42 -158 43 -195 7 -37 -38 -38 -64 -5 -178 51 -176 21 -267
-117 -355 l-50 -32 -71 18 c-40 11 -101 19 -137 19 -36 0 -97 -8 -137 -19
l-71 -18 -50 32 c-138 88 -168 179 -117 355 33 114 32 140 -5 178 -37 36 -59
35 -195 -7 -115 -36 -281 -40 -385 -11 -77 22 -208 81 -288 130 -73 44 -100
50 -136 31z m257 -315 c41 -16 106 -37 143 -46 74 -18 255 -24 339 -11 l50 7
-3 -74 c-5 -82 14 -165 53 -231 25 -43 103 -124 147 -153 l27 -18 -29 -44
c-39 -59 -68 -137 -76 -205 l-7 -54 -119 172 c-66 95 -129 180 -140 190 -57
49 -158 -2 -158 -80 0 -33 19 -65 135 -230 74 -106 135 -195 135 -198 0 -3
-75 -4 -166 -3 l-166 3 -22 76 c-12 41 -34 95 -48 120 -54 92 -175 179 -270
195 -21 4 -38 8 -38 9 0 2 18 38 39 81 22 44 48 109 59 145 26 86 44 247 36
321 -4 32 -4 58 -1 58 3 0 39 -13 80 -30z m2333 -28 c-15 -134 34 -365 105
-488 16 -28 29 -54 29 -56 0 -3 -17 -8 -37 -12 -96 -16 -217 -103 -271 -195
-14 -25 -36 -79 -48 -120 l-22 -76 -166 -3 c-91 -1 -166 0 -166 3 0 3 61 92
135 198 116 165 135 197 135 230 0 78 -101 129 -158 80 -11 -10 -74 -95 -140
-190 l-119 -172 -7 54 c-8 68 -37 146 -76 205 l-29 44 27 18 c44 29 122 110
147 153 39 66 58 149 53 231 l-3 74 50 -7 c87 -14 255 -8 335 10 41 10 107 31
145 47 39 16 74 29 79 29 5 1 6 -25 2 -57z m-1091 -556 c131 -62 194 -221 140
-353 l-17 -43 -238 0 -238 0 -17 43 c-25 61 -23 151 4 212 47 105 137 165 251
165 48 0 78 -7 115 -24z m1599 -640 c72 -55 76 -73 76 -404 0 -325 -2 -335
-63 -389 -66 -58 -140 -64 -220 -20 -60 34 -87 88 -87 179 0 152 -33 249 -112
325 -103 100 -252 126 -379 66 -144 -69 -209 -183 -209 -370 0 -98 -13 -136
-63 -180 -86 -75 -213 -60 -277 34 -21 30 -25 51 -31 158 -9 149 -34 216 -107
288 -139 136 -351 135 -485 -1 -70 -71 -99 -145 -104 -261 -6 -137 -10 -157
-45 -197 -75 -85 -182 -94 -265 -21 -50 44 -63 82 -63 180 0 187 -66 303 -209
371 -129 60 -277 33 -383 -71 -73 -72 -99 -140 -105 -281 -6 -137 -24 -180
-88 -217 -81 -46 -155 -41 -222 18 -61 54 -63 64 -63 392 0 271 2 299 19 333
22 42 43 64 86 86 27 14 199 16 1696 13 l1666 -2 37 -29z m-2707 -436 c48 -29
60 -62 66 -185 4 -77 12 -127 27 -168 102 -272 454 -344 649 -132 77 84 111
184 111 332 0 46 6 85 15 103 32 61 129 89 195 55 49 -25 70 -72 70 -157 0
-161 42 -271 137 -358 200 -183 527 -100 623 157 15 41 23 91 27 168 3 64 12
122 20 138 31 62 124 85 192 49 52 -28 71 -73 71 -163 0 -147 34 -246 113
-327 54 -56 106 -86 185 -108 l62 -17 0 -164 0 -163 -1570 0 -1570 0 0 163 0
164 63 17 c82 23 135 55 190 115 76 86 107 177 107 319 0 88 17 131 65 162 39
26 110 26 152 0z m2995 -1169 l33 -29 3 -207 c2 -114 0 -205 -5 -203 -122 61
-207 77 -312 61 -119 -19 -173 -50 -291 -173 -115 -119 -149 -140 -232 -140
-93 0 -112 11 -242 138 -126 123 -169 151 -264 171 -177 37 -306 -11 -456
-171 -110 -117 -145 -138 -236 -138 -91 0 -126 21 -236 138 -110 118 -174 156
-289 174 -59 9 -92 9 -146 0 -112 -19 -152 -44 -284 -174 -128 -127 -147 -138
-243 -138 -83 0 -117 20 -232 140 -118 123 -172 154 -291 173 -105 16 -190 0
-312 -61 -5 -2 -7 89 -5 203 l3 207 33 29 32 29 1970 0 1970 0 32 -29z m-3689
-595 c18 -7 78 -61 133 -120 83 -87 114 -112 170 -138 66 -32 74 -33 194 -33
121 0 128 1 191 32 51 25 89 57 168 139 57 58 118 112 137 120 39 16 151 19
191 3 15 -5 80 -61 143 -124 156 -155 188 -170 360 -170 171 0 203 15 359 170
64 62 129 119 144 124 40 16 152 14 191 -3 19 -8 80 -62 137 -120 138 -143
189 -169 340 -174 175 -6 253 30 398 189 47 50 99 98 118 105 18 8 64 14 103
14 89 0 132 -21 194 -93 l46 -54 0 -217 0 -216 -2030 0 -2030 0 0 218 0 217
46 53 c64 73 102 91 192 92 40 0 87 -6 105 -14z"/>
<path d="M2489 221 c-51 -52 -33 -128 37 -157 29 -12 39 -12 68 0 70 29 88
105 37 157 -41 41 -101 41 -142 0z"/>
</g>
</svg>
