<?xml version="1.0" standalone="no"?>
<!DOCTYPE svg PUBLIC "-//W3C//DTD SVG 20010904//EN"
 "http://www.w3.org/TR/2001/REC-SVG-20010904/DTD/svg10.dtd">
<svg version="1.0" xmlns="http://www.w3.org/2000/svg"
 width="512.000000pt" height="512.000000pt" viewBox="0 0 512.000000 512.000000"
 preserveAspectRatio="xMidYMid meet">

<g transform="translate(0.000000,512.000000) scale(0.100000,-0.100000)"
fill="#000000" stroke="none">
<path d="M2329 5091 l-29 -29 0 -285 0 -284 -57 -12 c-78 -17 -222 -75 -308
-123 -110 -63 -193 -126 -285 -218 -187 -187 -313 -435 -356 -703 -16 -98 -19
-108 -41 -113 -13 -4 -32 -18 -43 -31 -18 -24 -20 -41 -20 -215 0 -247 5 -258
116 -258 35 0 56 -5 59 -12 3 -7 61 -627 129 -1378 69 -751 128 -1373 131
-1383 19 -48 6 -47 938 -47 l874 0 26 24 c17 15 27 38 31 67 4 24 60 643 126
1374 66 732 122 1336 125 1343 3 8 26 12 65 12 51 0 65 4 85 25 25 24 25 25
25 223 0 184 -2 201 -20 225 -11 13 -31 28 -44 31 -21 5 -25 13 -31 64 -58
503 -427 941 -912 1080 l-98 28 -2 280 c-2 181 -7 286 -14 300 -20 39 -51 44
-250 44 l-191 0 -29 -29z m-29 -1266 l0 -495 -425 0 -426 0 7 53 c47 365 288
699 624 859 57 28 191 76 213 78 4 0 7 -223 7 -495z m596 471 c176 -60 315
-146 439 -271 173 -172 287 -404 320 -647 l6 -48 -425 0 -426 0 0 495 c0 272
4 495 8 495 5 0 40 -11 78 -24z m854 -1221 l0 -85 -1195 0 -1195 0 0 85 0 85
1195 0 1195 0 0 -85z m-248 -967 c-35 -387 -65 -705 -67 -707 -2 -2 -37 5 -77
15 -155 38 -356 15 -499 -57 -84 -42 -115 -66 -229 -174 -144 -136 -254 -185
-417 -185 -105 0 -166 17 -358 102 l-161 71 -73 801 c-39 441 -72 809 -71 819
0 16 55 17 1008 17 l1008 0 -64 -702z m-156 -1765 c-4 -49 -9 -107 -12 -130
l-6 -43 -773 0 -772 0 -7 46 c-3 26 -6 64 -6 85 l0 39 690 0 690 0 0 45 0 45
101 0 102 0 -7 -87z"/>
<path d="M2865 2631 c-16 -10 -112 -102 -212 -203 -246 -249 -248 -207 20
-475 196 -196 204 -203 243 -203 38 0 46 6 248 209 l209 210 -6 38 c-6 33 -33
64 -210 240 -221 221 -227 225 -292 184z m170 -551 l-120 -120 -120 120 -120
120 120 120 120 120 120 -120 120 -120 -120 -120z"/>
<path d="M2033 1847 c-268 -268 -267 -225 -15 -479 103 -104 199 -196 214
-204 61 -32 68 -28 285 189 112 111 207 213 210 226 3 13 2 34 -3 47 -5 13
-98 114 -208 224 -193 195 -199 200 -239 200 -40 0 -46 -5 -244 -203z m362
-367 l-120 -120 -120 120 -120 120 120 120 120 120 120 -120 120 -120 -120
-120z"/>
</g>
</svg>
