<?xml version="1.0" standalone="no"?>
<!DOCTYPE svg PUBLIC "-//W3C//DTD SVG 20010904//EN"
 "http://www.w3.org/TR/2001/REC-SVG-20010904/DTD/svg10.dtd">
<svg version="1.0" xmlns="http://www.w3.org/2000/svg"
 width="512.000000pt" height="512.000000pt" viewBox="0 0 512.000000 512.000000"
 preserveAspectRatio="xMidYMid meet">

<g transform="translate(0.000000,512.000000) scale(0.100000,-0.100000)"
fill="#000000" stroke="none">
<path d="M2420 5114 c-303 -37 -570 -161 -784 -364 -303 -288 -457 -695 -417
-1102 12 -113 11 -122 -5 -131 -46 -26 -107 -95 -137 -156 -29 -60 -32 -74
-32 -161 0 -82 4 -103 27 -152 57 -122 178 -208 305 -216 34 -3 63 -6 63 -8 0
-17 805 -2600 822 -2637 26 -58 102 -131 166 -160 73 -34 198 -31 273 6 65 31
132 100 159 160 15 34 820 2617 820 2631 0 2 29 5 63 8 127 8 248 94 305 216
23 49 27 70 27 152 0 87 -3 101 -32 161 -30 61 -91 130 -137 156 -16 9 -17 18
-5 131 33 330 -64 667 -272 944 -64 86 -217 231 -305 290 -158 106 -334 180
-506 213 -81 16 -328 28 -398 19z m423 -237 c333 -88 624 -336 758 -647 97
-225 120 -444 73 -688 -23 -123 -16 -141 80 -187 57 -27 76 -42 94 -73 42 -75
20 -176 -47 -215 -49 -30 -183 -36 -741 -37 l-515 0 -50 -24 c-27 -12 -67 -42
-88 -66 -69 -75 -71 -88 -75 -352 l-4 -237 -25 -25 c-32 -32 -90 -35 -124 -7
-24 19 -24 22 -29 258 -5 220 -7 242 -28 288 -27 60 -72 109 -127 138 -38 21
-57 22 -336 27 l-296 5 -40 27 c-47 31 -73 80 -73 138 0 74 38 122 131 163 79
35 88 61 65 176 -129 617 264 1217 884 1350 137 30 373 24 513 -12z m-922
-2076 c17 -21 19 -42 19 -245 0 -269 6 -293 89 -377 150 -149 380 -109 483 84
22 39 23 57 28 284 4 215 7 244 23 260 16 17 51 18 459 21 l440 3 -6 -25 c-17
-69 -778 -2515 -789 -2535 -40 -79 -174 -79 -214 0 -11 20 -772 2466 -789
2536 l-7 25 123 -4 c114 -3 123 -5 141 -27z"/>
</g>
</svg>
